<?xml version="1.0" encoding="UTF-8" standalone="no"?>
<!-- Created with Inkscape (http://www.inkscape.org/) -->

<svg
   xmlns:dc="http://purl.org/dc/elements/1.1/"
   xmlns:cc="http://creativecommons.org/ns#"
   xmlns:rdf="http://www.w3.org/1999/02/22-rdf-syntax-ns#"
   xmlns:svg="http://www.w3.org/2000/svg"
   xmlns="http://www.w3.org/2000/svg"
   xmlns:sodipodi="http://sodipodi.sourceforge.net/DTD/sodipodi-0.dtd"
   xmlns:inkscape="http://www.inkscape.org/namespaces/inkscape"
   width="270.18039"
   height="174.52315"
   id="svg3745"
   sodipodi:version="0.32"
   inkscape:version="0.91 r13725"
   sodipodi:docname="slope1.svg"
   inkscape:output_extension="org.inkscape.output.svg.inkscape"
   version="1.1">
  <sodipodi:namedview
     id="base"
     pagecolor="#ffffff"
     bordercolor="#666666"
     borderopacity="1.0"
     gridtolerance="10000"
     guidetolerance="10"
     objecttolerance="10"
     inkscape:pageopacity="0.0"
     inkscape:pageshadow="2"
     inkscape:zoom="1.858123"
     inkscape:cx="147.81559"
     inkscape:cy="101.11936"
     inkscape:document-units="px"
     inkscape:current-layer="layer1"
     showgrid="false"
     showborder="true"
     inkscape:window-width="1366"
     inkscape:window-height="768"
     inkscape:window-x="-4"
     inkscape:window-y="-4"
     inkscape:window-maximized="0" />
  <defs
     id="defs3747">
    <marker
       style="overflow:visible"
       id="Arrow1Lend"
       refX="0"
       refY="0"
       orient="auto"
       inkscape:stockid="Arrow1Lend">
      <path
         inkscape:connector-curvature="0"
         transform="matrix(-0.8,0,0,-0.8,-10,0)"
         style="fill-rule:evenodd;stroke:#000000;stroke-width:1pt;marker-start:none"
         d="M 0,0 5,-5 -12.5,0 5,5 0,0 Z"
         id="path7731" />
    </marker>
  </defs>
  <metadata
     id="metadata3750">
    <rdf:RDF>
      <cc:Work
         rdf:about="">
        <dc:format>image/svg+xml</dc:format>
        <dc:type
           rdf:resource="http://purl.org/dc/dcmitype/StillImage" />
        <dc:title></dc:title>
      </cc:Work>
    </rdf:RDF>
  </metadata>
  <g
     transform="translate(444.58863,-1311.0334)"
     id="layer1"
     inkscape:groupmode="layer"
     inkscape:label="Layer 1">
    <g
       transform="matrix(0.38409459,0,0,0.38409459,-273.89458,933.38131)"
       id="g7188">
      <g
         id="g6510"
         transform="translate(-525.14044,621.6024)">
        <path
           inkscape:connector-curvature="0"
           id="path6512"
           d="m 133.03776,362.94948 397.14188,0"
           style="display:inline;overflow:visible;visibility:visible;fill:none;fill-opacity:1;fill-rule:nonzero;stroke:#aaccee;stroke-width:2.6500001;stroke-linecap:butt;stroke-linejoin:miter;stroke-miterlimit:4;stroke-dasharray:none;stroke-dashoffset:0;stroke-opacity:1;marker:none;marker-start:none;marker-mid:none;marker-end:none;enable-background:accumulate" />
        <path
           inkscape:connector-curvature="0"
           id="path6514"
           d="m 133.03776,760.29911 397.14188,0"
           style="display:inline;overflow:visible;visibility:visible;fill:none;fill-opacity:1;fill-rule:nonzero;stroke:#aaccee;stroke-width:2.6500001;stroke-linecap:butt;stroke-linejoin:miter;stroke-miterlimit:4;stroke-dasharray:none;stroke-dashoffset:0;stroke-opacity:1;marker:none;marker-start:none;marker-mid:none;marker-end:none;enable-background:accumulate" />
        <path
           inkscape:connector-curvature="0"
           id="path6516"
           d="m 133.03776,412.61816 397.14188,0"
           style="display:inline;overflow:visible;visibility:visible;fill:none;fill-opacity:1;fill-rule:nonzero;stroke:#aaccee;stroke-width:2.6500001;stroke-linecap:butt;stroke-linejoin:miter;stroke-miterlimit:4;stroke-dasharray:none;stroke-dashoffset:0;stroke-opacity:1;marker:none;marker-start:none;marker-mid:none;marker-end:none;enable-background:accumulate" />
        <path
           inkscape:connector-curvature="0"
           id="path6518"
           d="m 133.03776,462.28685 397.14188,0"
           style="display:inline;overflow:visible;visibility:visible;fill:none;fill-opacity:1;fill-rule:nonzero;stroke:#aaccee;stroke-width:2.6500001;stroke-linecap:butt;stroke-linejoin:miter;stroke-miterlimit:4;stroke-dasharray:none;stroke-dashoffset:0;stroke-opacity:1;marker:none;marker-start:none;marker-mid:none;marker-end:none;enable-background:accumulate" />
        <path
           inkscape:connector-curvature="0"
           id="path6520"
           d="m 133.03776,511.95557 397.14188,0"
           style="display:inline;overflow:visible;visibility:visible;fill:none;fill-opacity:1;fill-rule:nonzero;stroke:#aaccee;stroke-width:2.6500001;stroke-linecap:butt;stroke-linejoin:miter;stroke-miterlimit:4;stroke-dasharray:none;stroke-dashoffset:0;stroke-opacity:1;marker:none;marker-start:none;marker-mid:none;marker-end:none;enable-background:accumulate" />
        <path
           inkscape:connector-curvature="0"
           id="path6522"
           d="m 133.03776,561.62427 397.14188,0"
           style="display:inline;overflow:visible;visibility:visible;fill:none;fill-opacity:1;fill-rule:nonzero;stroke:#aaccee;stroke-width:2.6500001;stroke-linecap:butt;stroke-linejoin:miter;stroke-miterlimit:4;stroke-dasharray:none;stroke-dashoffset:0;stroke-opacity:1;marker:none;marker-start:none;marker-mid:none;marker-end:none;enable-background:accumulate" />
        <path
           inkscape:connector-curvature="0"
           id="path6524"
           d="m 133.03776,611.29298 397.14188,0"
           style="display:inline;overflow:visible;visibility:visible;fill:none;fill-opacity:1;fill-rule:nonzero;stroke:#aaccee;stroke-width:2.6500001;stroke-linecap:butt;stroke-linejoin:miter;stroke-miterlimit:4;stroke-dasharray:none;stroke-dashoffset:0;stroke-opacity:1;marker:none;marker-start:none;marker-mid:none;marker-end:none;enable-background:accumulate" />
        <path
           inkscape:connector-curvature="0"
           id="path6526"
           d="m 133.03776,660.96168 397.14188,0"
           style="display:inline;overflow:visible;visibility:visible;fill:none;fill-opacity:1;fill-rule:nonzero;stroke:#aaccee;stroke-width:2.6500001;stroke-linecap:butt;stroke-linejoin:miter;stroke-miterlimit:4;stroke-dasharray:none;stroke-dashoffset:0;stroke-opacity:1;marker:none;marker-start:none;marker-mid:none;marker-end:none;enable-background:accumulate" />
        <path
           inkscape:connector-curvature="0"
           id="path6528"
           d="m 133.03776,710.63039 397.14188,0"
           style="display:inline;overflow:visible;visibility:visible;fill:none;fill-opacity:1;fill-rule:nonzero;stroke:#aaccee;stroke-width:2.6500001;stroke-linecap:butt;stroke-linejoin:miter;stroke-miterlimit:4;stroke-dasharray:none;stroke-dashoffset:0;stroke-opacity:1;marker:none;marker-start:none;marker-mid:none;marker-end:none;enable-background:accumulate" />
      </g>
      <g
         id="g6530"
         transform="matrix(0,-1,1,0,-755.34459,1515.5478)">
        <path
           inkscape:connector-curvature="0"
           id="path6532"
           d="m 133.03776,362.94948 397.14188,0"
           style="display:inline;overflow:visible;visibility:visible;fill:none;fill-opacity:1;fill-rule:nonzero;stroke:#aaccee;stroke-width:2.6500001;stroke-linecap:butt;stroke-linejoin:miter;stroke-miterlimit:4;stroke-dasharray:none;stroke-dashoffset:0;stroke-opacity:1;marker:none;marker-start:none;marker-mid:none;marker-end:none;enable-background:accumulate" />
        <path
           inkscape:connector-curvature="0"
           id="path6534"
           d="m 133.03776,760.29911 397.14188,0"
           style="display:inline;overflow:visible;visibility:visible;fill:none;fill-opacity:1;fill-rule:nonzero;stroke:#aaccee;stroke-width:2.6500001;stroke-linecap:butt;stroke-linejoin:miter;stroke-miterlimit:4;stroke-dasharray:none;stroke-dashoffset:0;stroke-opacity:1;marker:none;marker-start:none;marker-mid:none;marker-end:none;enable-background:accumulate" />
        <path
           inkscape:connector-curvature="0"
           id="path6536"
           d="m 133.03776,412.61816 397.14188,0"
           style="display:inline;overflow:visible;visibility:visible;fill:none;fill-opacity:1;fill-rule:nonzero;stroke:#aaccee;stroke-width:2.6500001;stroke-linecap:butt;stroke-linejoin:miter;stroke-miterlimit:4;stroke-dasharray:none;stroke-dashoffset:0;stroke-opacity:1;marker:none;marker-start:none;marker-mid:none;marker-end:none;enable-background:accumulate" />
        <path
           inkscape:connector-curvature="0"
           id="path6538"
           d="m 133.03776,462.28685 397.14188,0"
           style="display:inline;overflow:visible;visibility:visible;fill:none;fill-opacity:1;fill-rule:nonzero;stroke:#aaccee;stroke-width:2.6500001;stroke-linecap:butt;stroke-linejoin:miter;stroke-miterlimit:4;stroke-dasharray:none;stroke-dashoffset:0;stroke-opacity:1;marker:none;marker-start:none;marker-mid:none;marker-end:none;enable-background:accumulate" />
        <path
           inkscape:connector-curvature="0"
           id="path6540"
           d="m 133.03776,511.95557 397.14188,0"
           style="display:inline;overflow:visible;visibility:visible;fill:none;fill-opacity:1;fill-rule:nonzero;stroke:#aaccee;stroke-width:2.6500001;stroke-linecap:butt;stroke-linejoin:miter;stroke-miterlimit:4;stroke-dasharray:none;stroke-dashoffset:0;stroke-opacity:1;marker:none;marker-start:none;marker-mid:none;marker-end:none;enable-background:accumulate" />
        <path
           inkscape:connector-curvature="0"
           id="path6542"
           d="m 133.03776,561.62427 397.14188,0"
           style="display:inline;overflow:visible;visibility:visible;fill:none;fill-opacity:1;fill-rule:nonzero;stroke:#aaccee;stroke-width:2.6500001;stroke-linecap:butt;stroke-linejoin:miter;stroke-miterlimit:4;stroke-dasharray:none;stroke-dashoffset:0;stroke-opacity:1;marker:none;marker-start:none;marker-mid:none;marker-end:none;enable-background:accumulate" />
        <path
           inkscape:connector-curvature="0"
           id="path6544"
           d="m 133.03776,611.29298 397.14188,0"
           style="display:inline;overflow:visible;visibility:visible;fill:none;fill-opacity:1;fill-rule:nonzero;stroke:#aaccee;stroke-width:2.6500001;stroke-linecap:butt;stroke-linejoin:miter;stroke-miterlimit:4;stroke-dasharray:none;stroke-dashoffset:0;stroke-opacity:1;marker:none;marker-start:none;marker-mid:none;marker-end:none;enable-background:accumulate" />
        <path
           inkscape:connector-curvature="0"
           id="path6546"
           d="m 133.03776,660.96168 397.14188,0"
           style="display:inline;overflow:visible;visibility:visible;fill:none;fill-opacity:1;fill-rule:nonzero;stroke:#aaccee;stroke-width:2.6500001;stroke-linecap:butt;stroke-linejoin:miter;stroke-miterlimit:4;stroke-dasharray:none;stroke-dashoffset:0;stroke-opacity:1;marker:none;marker-start:none;marker-mid:none;marker-end:none;enable-background:accumulate" />
        <path
           inkscape:connector-curvature="0"
           id="path6548"
           d="m 133.03776,710.63039 397.14188,0"
           style="display:inline;overflow:visible;visibility:visible;fill:none;fill-opacity:1;fill-rule:nonzero;stroke:#aaccee;stroke-width:2.6500001;stroke-linecap:butt;stroke-linejoin:miter;stroke-miterlimit:4;stroke-dasharray:none;stroke-dashoffset:0;stroke-opacity:1;marker:none;marker-start:none;marker-mid:none;marker-end:none;enable-background:accumulate" />
      </g>
    </g>
    <path
       inkscape:connector-curvature="0"
       id="path6550"
       d="m -405.59903,1388.303 95.69482,0.3823"
       style="display:inline;overflow:visible;visibility:visible;opacity:1;fill:#986601;fill-opacity:1;fill-rule:nonzero;stroke:#fd3301;stroke-width:1.78603995;stroke-linecap:butt;stroke-linejoin:miter;stroke-miterlimit:4;stroke-dasharray:7.14415934, 7.14415934;stroke-dashoffset:0;stroke-opacity:1;marker:none;marker-start:none;marker-mid:none;marker-end:none;enable-background:accumulate" />
    <path
       inkscape:connector-curvature="0"
       id="path6552"
       d="m -310.15765,1330.9637 0.0525,57.8801"
       style="display:inline;overflow:visible;visibility:visible;opacity:1;fill:#986601;fill-opacity:1;fill-rule:nonzero;stroke:#0169c9;stroke-width:1.78603995;stroke-linecap:butt;stroke-linejoin:miter;stroke-miterlimit:4;stroke-dasharray:5.35811962, 5.35811962;stroke-dashoffset:0;stroke-opacity:1;marker:none;marker-start:none;marker-mid:none;marker-end:none;enable-background:accumulate" />
    <path
       inkscape:connector-curvature="0"
       id="path6554"
       d="m -405.59903,1387.93 95.52004,-56.528"
       style="display:inline;overflow:visible;visibility:visible;opacity:1;fill:#000000;fill-opacity:1;fill-rule:nonzero;stroke:#000000;stroke-width:1.92047286;stroke-linecap:butt;stroke-linejoin:miter;stroke-miterlimit:4;stroke-dasharray:none;stroke-dashoffset:0;stroke-opacity:1;marker:none;marker-start:none;marker-mid:none;marker-end:none;enable-background:accumulate" />
    <text
       sodipodi:linespacing="125%"
       id="text6556"
       y="1365.3617"
       x="-276.14267"
       style="font-style:normal;font-variant:normal;font-weight:normal;font-stretch:normal;font-size:19.20472908px;line-height:125%;font-family:'Comic Sans MS';-inkscape-font-specification:'Comic Sans MS, Normal';text-indent:0;text-align:start;text-decoration:none;text-decoration-line:none;letter-spacing:normal;word-spacing:normal;text-transform:none;direction:ltr;block-progression:tb;writing-mode:lr-tb;text-anchor:start;display:inline;overflow:visible;visibility:visible;opacity:1;fill:#0169c9;fill-opacity:1;fill-rule:nonzero;stroke:none;stroke-width:4.6500001;stroke-linecap:butt;stroke-linejoin:miter;stroke-miterlimit:4;stroke-dasharray:13.95000029, 13.95000029;stroke-dashoffset:0;stroke-opacity:1;marker:none;marker-start:none;marker-mid:none;marker-end:none;enable-background:accumulate"
       xml:space="preserve"><tspan
         y="1365.3617"
         x="-276.14267"
         id="tspan6564"
         sodipodi:role="line">Y 的变动</tspan></text>
    <text
       sodipodi:linespacing="125%"
       id="text6560"
       y="1434.4255"
       x="-393.40646"
       style="font-style:normal;font-variant:normal;font-weight:normal;font-stretch:normal;font-size:19.20472908px;line-height:125%;font-family:'Comic Sans MS';-inkscape-font-specification:'Comic Sans MS, Normal';text-indent:0;text-align:start;text-decoration:none;text-decoration-line:none;letter-spacing:normal;word-spacing:normal;text-transform:none;direction:ltr;block-progression:tb;writing-mode:lr-tb;text-anchor:start;display:inline;overflow:visible;visibility:visible;opacity:1;fill:#fd3301;fill-opacity:1;fill-rule:nonzero;stroke:none;stroke-width:4.6500001;stroke-linecap:butt;stroke-linejoin:miter;stroke-miterlimit:4;stroke-dasharray:13.95000029, 13.95000029;stroke-dashoffset:0;stroke-opacity:1;marker:none;marker-start:none;marker-mid:none;marker-end:none;enable-background:accumulate"
       xml:space="preserve"><tspan
         y="1434.4255"
         x="-393.40646"
         id="tspan6566"
         sodipodi:role="line">X 的变动</tspan></text>
    <g
       transform="matrix(0.56956822,0,0,0.92420662,-944.72472,156.87209)"
       id="g6597">
      <path
         inkscape:connector-curvature="0"
         style="display:inline;overflow:visible;visibility:visible;opacity:1;fill:#0169c9;fill-opacity:1;fill-rule:nonzero;stroke:none;stroke-width:3.5;stroke-linecap:butt;stroke-linejoin:miter;stroke-miterlimit:4;stroke-dasharray:none;stroke-dashoffset:0;stroke-opacity:1;marker:none;marker-start:none;marker-mid:none;marker-end:none;enable-background:accumulate"
         id="path5726"
         d="m 1138.6798,1272.774 c 0.2973,0 0.5943,0.016 0.8914,0.026 0.3136,0.013 0.622,0.061 0.932,0.1051 0.3197,0.057 0.6399,0.1117 0.9575,0.1795 0.304,0.055 0.6051,0.1237 0.9071,0.1884 0.3093,0.068 0.6134,0.1542 0.9184,0.2386 0.3177,0.095 0.6315,0.2019 0.9482,0.3001 0.3035,0.089 0.6021,0.1927 0.9036,0.2877 0.3025,0.105 0.6035,0.2135 0.8995,0.3357 0.2779,0.109 0.5504,0.2307 0.8248,0.3481 0.2655,0.1063 0.5205,0.2355 0.7752,0.3652 0.2573,0.1357 0.5073,0.2845 0.7586,0.431 0.2405,0.1426 0.4796,0.287 0.7109,0.444 0.2434,0.1663 0.4692,0.3553 0.6957,0.5434 0.2218,0.1858 0.4286,0.3881 0.6292,0.5963 0.226,0.2349 0.425,0.4922 0.6094,0.7604 0.1819,0.2705 0.3344,0.559 0.4821,0.8491 0.1414,0.2804 0.2752,0.5644 0.3967,0.854 0.1266,0.2947 0.2326,0.5975 0.3273,0.9037 0.091,0.2846 0.1635,0.5741 0.2341,0.8642 0.081,0.3013 0.1363,0.6085 0.1936,0.9149 0.045,0.2974 0.083,0.5961 0.1124,0.8955 0.025,0.2681 0.048,0.5364 0.07,0.8048 0.02,0.2757 0.049,0.5505 0.065,0.8265 0.01,0.2757 0.028,0.551 0.037,0.8266 0.01,0.2652 0.01,0.5304 0.01,0.7956 7e-4,0.253 0,0.506 4e-4,0.759 4e-4,0.2507 4e-4,0.5015 -2e-4,0.7523 0,0.249 5e-4,0.4979 0,0.7469 0,0.2259 0,0.4518 0,0.6778 0.01,0.2131 -0.011,0.4253 -0.01,0.6383 0,0.2216 0.01,0.4442 0.019,0.6655 0.021,0.2278 0.036,0.4562 0.062,0.6835 0.025,0.2168 0.047,0.4337 0.073,0.6504 0.027,0.2107 0.06,0.4204 0.1014,0.6287 0.04,0.2159 0.093,0.4288 0.1481,0.6413 0.05,0.2051 0.1046,0.4091 0.1612,0.6124 0.047,0.1994 0.11,0.3942 0.1764,0.5878 0.074,0.2141 0.1619,0.4234 0.2518,0.6313 0.09,0.2123 0.1875,0.4213 0.2754,0.6344 0.085,0.2004 0.1822,0.3946 0.2831,0.5872 0.1037,0.1979 0.2213,0.388 0.3435,0.575 0.1222,0.1921 0.2534,0.3782 0.388,0.5619 0.1343,0.1781 0.2797,0.3474 0.4294,0.5127 0.1633,0.1762 0.3329,0.3465 0.502,0.5172 0.1623,0.1613 0.3278,0.3194 0.4952,0.4753 0.1568,0.1474 0.3168,0.2912 0.4784,0.4332 0.1468,0.1292 0.3012,0.2491 0.4548,0.37 0.1541,0.1167 0.3094,0.2319 0.4645,0.3474 0.1355,0.1001 0.2771,0.191 0.4201,0.2798 0.1403,0.089 0.2885,0.1627 0.4371,0.2357 0.1612,0.071 0.3201,0.1463 0.4795,0.2209 0.1552,0.073 0.3104,0.1456 0.4655,0.2184 0.1344,0.066 0.272,0.1247 0.4093,0.1843 0.1181,0.023 0.231,0.066 0.3445,0.1052 0.095,0.045 0.1889,0.036 0.2889,0.035 0.1356,0.012 0.2699,0.036 0.4042,0.058 0.1323,0.021 0.2645,0.043 0.3967,0.065 0.1192,0.02 0.2383,0.039 0.3575,0.059 0.073,0.012 0.1454,0.024 0.2181,0.036 l -2.4134,4.3386 c -0.072,-0.013 -0.1446,-0.025 -0.2169,-0.038 -0.1185,-0.021 -0.237,-0.041 -0.3554,-0.062 -0.1319,-0.023 -0.2638,-0.046 -0.3956,-0.07 -0.1558,-0.028 -0.3123,-0.054 -0.4655,-0.095 -0.1894,-0.062 -0.3771,-0.1279 -0.562,-0.2029 -0.1656,-0.062 -0.3322,-0.1235 -0.4879,-0.2085 -0.1487,-0.07 -0.2964,-0.1421 -0.4444,-0.2137 -0.1544,-0.075 -0.3089,-0.1493 -0.4632,-0.2241 -0.1828,-0.089 -0.3665,-0.1766 -0.5443,-0.2753 -0.2003,-0.1153 -0.4009,-0.2303 -0.5932,-0.3587 -0.1853,-0.1228 -0.3674,-0.2503 -0.5438,-0.3854 -0.1699,-0.1298 -0.3403,-0.2589 -0.5075,-0.3921 -0.1823,-0.1474 -0.3646,-0.295 -0.5389,-0.452 -0.1755,-0.1577 -0.3495,-0.3169 -0.5196,-0.4805 -0.1867,-0.1773 -0.371,-0.3571 -0.553,-0.5393 -0.1871,-0.1917 -0.3769,-0.3809 -0.5582,-0.5781 -0.1963,-0.214 -0.3873,-0.4328 -0.5674,-0.6607 -0.1698,-0.2192 -0.333,-0.4437 -0.4865,-0.6747 -0.1535,-0.2335 -0.3093,-0.4655 -0.4499,-0.7072 -0.1353,-0.2355 -0.2676,-0.4728 -0.3849,-0.7179 -0.1082,-0.2203 -0.202,-0.4475 -0.3007,-0.6723 -0.1037,-0.2396 -0.2102,-0.4777 -0.3126,-0.7179 -0.098,-0.2411 -0.1934,-0.4832 -0.2769,-0.7297 -0.067,-0.2227 -0.131,-0.4462 -0.195,-0.6698 -0.06,-0.2362 -0.1263,-0.471 -0.1838,-0.7077 -0.06,-0.2465 -0.1205,-0.4929 -0.1674,-0.7422 -0.049,-0.2419 -0.087,-0.4863 -0.1152,-0.7314 -0.03,-0.246 -0.068,-0.4909 -0.087,-0.7382 -0.03,-0.2602 -0.053,-0.5205 -0.08,-0.7812 -0.012,-0.2332 -0.036,-0.4655 -0.026,-0.6995 0,-0.227 0,-0.454 0,-0.681 0,-0.2495 0,-0.4991 0,-0.7486 -5e-4,-0.2507 -4e-4,-0.5015 0,-0.7523 5e-4,-0.253 -10e-5,-0.506 6e-4,-0.759 0,-0.26 0,-0.52 0,-0.78 0.01,-0.2541 0.01,-0.5075 -0.01,-0.7617 -0.01,-0.2515 0,-0.5028 -0.031,-0.7534 -0.019,-0.2655 -0.039,-0.5311 -0.058,-0.7967 -0.018,-0.2659 -0.032,-0.5319 -0.061,-0.7971 -0.016,-0.2466 -0.057,-0.4898 -0.095,-0.7338 -0.056,-0.2562 -0.1087,-0.5132 -0.1711,-0.7677 -0.063,-0.2405 -0.1226,-0.4813 -0.2049,-0.7162 -0.091,-0.2404 -0.1798,-0.4815 -0.2953,-0.7117 -0.1014,-0.2114 -0.2035,-0.4224 -0.3152,-0.6286 -0.102,-0.1636 -0.2085,-0.3227 -0.3456,-0.4599 -0.1433,-0.1497 -0.292,-0.294 -0.4524,-0.4253 -0.1623,-0.1353 -0.327,-0.2681 -0.5065,-0.3802 -0.2031,-0.1271 -0.4078,-0.2516 -0.6158,-0.3704 -0.2092,-0.1213 -0.4207,-0.2388 -0.6402,-0.3405 -0.223,-0.1064 -0.4515,-0.2004 -0.6777,-0.2999 -0.2497,-0.1079 -0.5011,-0.2115 -0.7558,-0.3074 -0.262,-0.093 -0.5244,-0.1861 -0.7902,-0.2682 -0.2938,-0.097 -0.5891,-0.1881 -0.8843,-0.28 -0.286,-0.09 -0.5732,-0.1764 -0.8655,-0.2436 -0.2743,-0.068 -0.552,-0.1223 -0.8285,-0.1802 -0.2837,-0.059 -0.5691,-0.1102 -0.8542,-0.1618 -0.2743,-0.041 -0.5479,-0.089 -0.8253,-0.1032 -0.2587,-0.021 -0.519,-0.017 -0.7782,-0.024 -0.2772,-0.01 -0.5543,-0.018 -0.8315,-0.027 l 2.0623,-4.424 z" />
      <path
         inkscape:connector-curvature="0"
         d="m 1138.6798,1334.8219 c 0.2973,0 0.5943,-0.015 0.8914,-0.026 0.3136,-0.013 0.622,-0.061 0.932,-0.1052 0.3197,-0.057 0.6399,-0.1116 0.9575,-0.1795 0.304,-0.055 0.6051,-0.1236 0.9071,-0.1884 0.3093,-0.068 0.6134,-0.1541 0.9184,-0.2385 0.3177,-0.095 0.6315,-0.202 0.9482,-0.3002 0.3035,-0.089 0.6021,-0.1926 0.9036,-0.2877 0.3025,-0.105 0.6035,-0.2134 0.8995,-0.3357 0.2779,-0.1089 0.5504,-0.2307 0.8248,-0.3481 0.2655,-0.1063 0.5205,-0.2354 0.7752,-0.3651 0.2573,-0.1358 0.5073,-0.2846 0.7586,-0.431 0.2405,-0.1426 0.4796,-0.287 0.7109,-0.4441 0.2434,-0.1663 0.4692,-0.3553 0.6957,-0.5433 0.2218,-0.1859 0.4286,-0.3882 0.6292,-0.5963 0.226,-0.235 0.425,-0.4922 0.6094,-0.7604 0.1819,-0.2705 0.3344,-0.5591 0.4821,-0.8491 0.1414,-0.2804 0.2752,-0.5645 0.3967,-0.8541 0.1266,-0.2946 0.2326,-0.5975 0.3273,-0.9037 0.091,-0.2845 0.1635,-0.5741 0.2341,-0.8641 0.081,-0.3013 0.1363,-0.6085 0.1936,-0.9149 0.045,-0.2975 0.083,-0.5961 0.1124,-0.8956 0.025,-0.2681 0.048,-0.5364 0.07,-0.8047 0.02,-0.2758 0.049,-0.5506 0.065,-0.8265 0.01,-0.2757 0.028,-0.5511 0.037,-0.8267 0.01,-0.2651 0.01,-0.5304 0.01,-0.7956 7e-4,-0.2529 0,-0.5059 4e-4,-0.7589 4e-4,-0.2508 4e-4,-0.5016 -2e-4,-0.7524 0,-0.2489 5e-4,-0.4979 0,-0.7468 0,-0.226 0,-0.4519 0,-0.6778 0.01,-0.2132 -0.011,-0.4253 -0.01,-0.6384 0,-0.2216 0.01,-0.4442 0.019,-0.6655 0.021,-0.2278 0.036,-0.4561 0.062,-0.6835 0.025,-0.2168 0.047,-0.4337 0.073,-0.6504 0.027,-0.2106 0.06,-0.4203 0.1014,-0.6287 0.04,-0.2159 0.093,-0.4287 0.1481,-0.6413 0.05,-0.2051 0.1046,-0.409 0.1612,-0.6124 0.047,-0.1994 0.11,-0.3942 0.1764,-0.5878 0.074,-0.2141 0.1619,-0.4234 0.2518,-0.6313 0.09,-0.2123 0.1875,-0.4213 0.2754,-0.6344 0.085,-0.2004 0.1822,-0.3946 0.2831,-0.5871 0.1037,-0.198 0.2213,-0.3881 0.3435,-0.575 0.1222,-0.1922 0.2534,-0.3783 0.388,-0.562 0.1343,-0.1781 0.2797,-0.3473 0.4294,-0.5126 0.1633,-0.1763 0.3329,-0.3466 0.502,-0.5172 0.1623,-0.1614 0.3278,-0.3194 0.4952,-0.4754 0.1568,-0.1474 0.3168,-0.2912 0.4784,-0.4332 0.1468,-0.1291 0.3012,-0.249 0.4548,-0.3699 0.1541,-0.1168 0.3094,-0.232 0.4645,-0.3475 0.1355,-0.1001 0.2771,-0.191 0.4201,-0.2798 0.1403,-0.089 0.2885,-0.1627 0.4371,-0.2357 0.1612,-0.071 0.3201,-0.1463 0.4795,-0.2209 0.1552,-0.073 0.3104,-0.1456 0.4655,-0.2184 0.1344,-0.066 0.272,-0.1247 0.4093,-0.1843 0.1181,-0.023 0.231,-0.066 0.3445,-0.1052 0.095,-0.045 0.1889,-0.036 0.2889,-0.035 0.1356,-0.012 0.2699,-0.036 0.4042,-0.058 0.1323,-0.022 0.2645,-0.043 0.3967,-0.065 0.1192,-0.02 0.2383,-0.039 0.3575,-0.059 0.073,-0.012 0.1454,-0.024 0.2181,-0.036 l -2.4134,-4.3386 c -0.072,0.013 -0.1446,0.025 -0.2169,0.038 -0.1185,0.021 -0.237,0.042 -0.3554,0.062 -0.1319,0.023 -0.2638,0.046 -0.3956,0.07 -0.1558,0.028 -0.3123,0.054 -0.4655,0.095 -0.1894,0.062 -0.3771,0.1279 -0.562,0.2029 -0.1656,0.062 -0.3322,0.1234 -0.4879,0.2085 -0.1487,0.07 -0.2964,0.142 -0.4444,0.2136 -0.1544,0.075 -0.3089,0.1493 -0.4632,0.2242 -0.1828,0.089 -0.3665,0.1765 -0.5443,0.2752 -0.2003,0.1153 -0.4009,0.2303 -0.5932,0.3588 -0.1853,0.1227 -0.3674,0.2502 -0.5438,0.3854 -0.1699,0.1297 -0.3403,0.2589 -0.5075,0.392 -0.1823,0.1474 -0.3646,0.2951 -0.5389,0.452 -0.1755,0.1578 -0.3495,0.317 -0.5196,0.4806 -0.1867,0.1773 -0.371,0.3571 -0.553,0.5393 -0.1871,0.1916 -0.3769,0.3808 -0.5582,0.5781 -0.1963,0.2139 -0.3873,0.4327 -0.5674,0.6606 -0.1698,0.2192 -0.333,0.4437 -0.4865,0.6747 -0.1535,0.2335 -0.3093,0.4656 -0.4499,0.7072 -0.1353,0.2355 -0.2676,0.4728 -0.3849,0.7179 -0.1082,0.2203 -0.202,0.4476 -0.3007,0.6723 -0.1037,0.2396 -0.2102,0.4778 -0.3126,0.7179 -0.098,0.2411 -0.1934,0.4832 -0.2769,0.7297 -0.067,0.2228 -0.131,0.4462 -0.195,0.6698 -0.06,0.2362 -0.1263,0.471 -0.1838,0.7078 -0.06,0.2464 -0.1205,0.4929 -0.1674,0.7421 -0.049,0.2419 -0.087,0.4863 -0.1152,0.7314 -0.03,0.246 -0.068,0.491 -0.087,0.7383 -0.03,0.2601 -0.053,0.5205 -0.08,0.7811 -0.012,0.2333 -0.036,0.4655 -0.026,0.6995 0,0.227 0,0.454 0,0.6811 0,0.2495 0,0.499 0,0.7485 -5e-4,0.2508 -4e-4,0.5015 0,0.7523 5e-4,0.253 -10e-5,0.506 6e-4,0.759 0,0.26 0,0.52 0,0.78 0.01,0.2541 0.01,0.5076 -0.01,0.7617 -0.01,0.2515 0,0.5028 -0.031,0.7534 -0.019,0.2656 -0.039,0.5311 -0.058,0.7967 -0.018,0.266 -0.032,0.532 -0.061,0.7971 -0.016,0.2467 -0.057,0.4898 -0.095,0.7338 -0.056,0.2562 -0.1087,0.5133 -0.1711,0.7678 -0.063,0.2405 -0.1226,0.4813 -0.2049,0.7161 -0.091,0.2405 -0.1798,0.4815 -0.2953,0.7117 -0.1014,0.2114 -0.2035,0.4224 -0.3152,0.6287 -0.102,0.1636 -0.2085,0.3227 -0.3456,0.4598 -0.1433,0.1497 -0.292,0.294 -0.4524,0.4254 -0.1623,0.1353 -0.327,0.268 -0.5065,0.3802 -0.2031,0.127 -0.4078,0.2515 -0.6158,0.3704 -0.2092,0.1213 -0.4207,0.2388 -0.6402,0.3405 -0.223,0.1064 -0.4515,0.2004 -0.6777,0.2998 -0.2497,0.108 -0.5011,0.2116 -0.7558,0.3074 -0.262,0.093 -0.5244,0.1862 -0.7902,0.2683 -0.2938,0.097 -0.5891,0.188 -0.8843,0.2799 -0.286,0.09 -0.5732,0.1764 -0.8655,0.2437 -0.2743,0.068 -0.552,0.1222 -0.8285,0.1802 -0.2837,0.059 -0.5691,0.1101 -0.8542,0.1618 -0.2743,0.041 -0.5479,0.089 -0.8253,0.1032 -0.2587,0.021 -0.519,0.017 -0.7782,0.024 -0.2772,0.01 -0.5543,0.018 -0.8315,0.027 l 2.0623,4.424 z"
         id="path5728"
         style="display:inline;overflow:visible;visibility:visible;opacity:1;fill:#0169c9;fill-opacity:1;fill-rule:nonzero;stroke:none;stroke-width:3.5;stroke-linecap:butt;stroke-linejoin:miter;stroke-miterlimit:4;stroke-dasharray:none;stroke-dashoffset:0;stroke-opacity:1;marker:none;marker-start:none;marker-mid:none;marker-end:none;enable-background:accumulate" />
    </g>
    <g
       transform="matrix(0.41817926,0,0,0.58913065,-770.03224,607.11865)"
       id="g6593">
      <path
         inkscape:connector-curvature="0"
         d="m 1099.2182,1343.4882 c -0.1969,0.2274 -0.3822,0.4643 -0.5728,0.6969 -0.2274,0.2814 -0.4568,0.5611 -0.69,0.8376 -0.2651,0.3182 -0.5507,0.6182 -0.8414,0.9129 -0.3902,0.3944 -0.7947,0.7744 -1.203,1.1499 -0.5037,0.4716 -1.0373,0.9085 -1.5802,1.3336 -0.6051,0.468 -1.2434,0.8893 -1.8845,1.3056 -0.6782,0.437 -1.3764,0.8407 -2.0867,1.223 -0.7708,0.4172 -1.5845,0.7409 -2.405,1.0445 -0.9024,0.3164 -1.8199,0.5879 -2.7371,0.8579 -0.9179,0.273 -1.8479,0.4994 -2.7839,0.7009 -0.9885,0.2041 -1.9894,0.3362 -2.9901,0.4625 -1.042,0.1267 -2.0864,0.2298 -3.1311,0.3309 -1.0325,0.1062 -2.0677,0.1794 -3.1034,0.2448 -1.0683,0.061 -2.1379,0.09 -3.2074,0.1201 -1.0803,0.032 -2.1609,0.054 -3.2415,0.064 -1.0757,0.015 -2.1515,0.01 -3.2272,-0.01 -1.1039,-0.016 -2.2073,-0.058 -3.3105,-0.099 -1.0842,-0.039 -2.1683,-0.083 -3.2518,-0.1368 -1.0748,-0.049 -2.149,-0.1113 -3.2229,-0.1767 -1.0893,-0.063 -2.1785,-0.129 -3.2671,-0.2046 -1.0965,-0.073 -2.193,-0.1473 -3.2887,-0.2311 -1.1069,-0.078 -2.2132,-0.1644 -3.3195,-0.251 -1.0945,-0.09 -2.1903,-0.1595 -3.2863,-0.2269 -1.1052,-0.069 -2.2113,-0.1198 -3.3173,-0.1718 -1.0935,-0.047 -2.1874,-0.083 -3.2813,-0.1195 -1.0371,-0.03 -2.0742,-0.049 -3.1117,-0.049 -1.0265,0.01 -2.0524,0.038 -3.0777,0.086 -1.0122,0.052 -2.0223,0.1343 -3.0312,0.2311 -0.9683,0.096 -1.934,0.2158 -2.8982,0.3466 -0.945,0.1318 -1.8859,0.2895 -2.8238,0.4643 -0.9162,0.1776 -1.8259,0.3864 -2.734,0.6012 -0.8516,0.2005 -1.7006,0.4121 -2.5472,0.633 -0.8178,0.211 -1.6258,0.456 -2.4298,0.7142 -0.8007,0.262 -1.5853,0.5686 -2.3706,0.8726 -0.7464,0.2966 -1.4877,0.6059 -2.2258,0.9225 -0.7027,0.3013 -1.3963,0.6226 -2.084,0.9563 -0.6607,0.3247 -1.31,0.6716 -1.9616,1.014 -0.6116,0.3235 -1.2155,0.661 -1.8147,1.0068 -0.5552,0.3234 -1.10806,0.6507 -1.65706,0.9846 -0.5093,0.3083 -1.0159,0.6213 -1.5172,0.9426 -0.474,0.3011 -0.9381,0.6171 -1.3945,0.9441 -0.4381,0.317 -0.8588,0.6566 -1.2798,0.9956 -0.3893,0.315 -0.7681,0.6423 -1.1432,0.9739 -0.3701,0.3285 -0.7205,0.678 -1.0611,1.0367 -0.3198,0.3435 -0.6223,0.7022 -0.9245,1.0611 -0.2931,0.347 -0.5712,0.7058 -0.8363,1.0744 -0.2578,0.3636 -0.489,0.7447 -0.7195,1.1258 -0.2032,0.3368 -0.4058,0.674 -0.6051,1.0132 -0.2186,0.3612 -0.405,0.7393 -0.576,1.1249 -0.1549,0.3677 -0.291,0.7431 -0.4215,1.1201 -0.1129,0.33 -0.2239,0.6607 -0.3351,0.9914 -0.0997,0.2964 -0.1993,0.5928 -0.299,0.8892 -0.0897,0.2667 -0.1793,0.5333 -0.269,0.8 -0.0806,0.2398 -0.1612,0.4797 -0.2419,0.7195 -0.0725,0.2158 -0.1451,0.4316 -0.2176,0.6474 -0.0653,0.1941 -0.1306,0.3882 -0.1958,0.5823 -0.0587,0.1746 -0.1175,0.3493 -0.1762,0.5239 -0.0474,0.1434 -0.0969,0.286 -0.1458,0.4289 l 4.1756,2.6448 c 0.0346,-0.1295 0.0727,-0.2578 0.1165,-0.3845 0.0569,-0.1758 0.1138,-0.3516 0.1707,-0.5274 0.0633,-0.1954 0.1265,-0.3909 0.1898,-0.5863 0.0703,-0.2172 0.1406,-0.4344 0.2109,-0.6517 0.0782,-0.2414 0.1563,-0.4829 0.2345,-0.7244 0.0869,-0.2684 0.1738,-0.5369 0.2606,-0.8053 0.0966,-0.2983 0.1932,-0.5967 0.2897,-0.8951 0.1068,-0.33 0.2137,-0.6599 0.3203,-0.99 0.1084,-0.3356 0.2145,-0.672 0.3392,-1.002 0.1109,-0.3044 0.2381,-0.6022 0.3977,-0.8847 0.1905,-0.3342 0.3844,-0.6665 0.5792,-0.9982 0.1968,-0.3353 0.3931,-0.6711 0.6071,-0.9958 0.2267,-0.3262 0.4637,-0.6447 0.7189,-0.9494 0.27,-0.3279 0.5405,-0.6556 0.8275,-0.9689 0.2939,-0.3147 0.5995,-0.6184 0.9211,-0.905 0.3484,-0.312 0.7018,-0.6185 1.0638,-0.9147 0.3834,-0.3139 0.7692,-0.6252 1.1725,-0.9135 0.4285,-0.3044 0.86446,-0.5983 1.30586,-0.8836 0.4861,-0.3126 0.9743,-0.6219 1.4672,-0.9236 0.534,-0.3258 1.0692,-0.6495 1.6099,-0.9641 0.5756,-0.3331 1.1553,-0.6589 1.7427,-0.9708 0.6245,-0.3338 1.25,-0.6661 1.8886,-0.9723 0.6625,-0.3157 1.3289,-0.6229 2.0038,-0.9114 0.7136,-0.307 1.4291,-0.61 2.1538,-0.89 0.744,-0.2878 1.4922,-0.5655 2.2551,-0.7999 0.7733,-0.2386 1.5515,-0.4602 2.3351,-0.6631 0.8292,-0.2154 1.6596,-0.4267 2.4936,-0.6229 0.8739,-0.2035 1.7499,-0.3994 2.6339,-0.5543 0.9082,-0.1583 1.8184,-0.3053 2.733,-0.4216 0.9385,-0.12 1.878,-0.2324 2.8205,-0.3169 0.9747,-0.086 1.9506,-0.1591 2.9287,-0.1928 0.9975,-0.034 1.9955,-0.055 2.9937,-0.046 1.0181,0.01 2.0361,0.027 3.0539,0.056 1.081,0.03 2.162,0.067 3.2421,0.1203 1.0978,0.054 2.1951,0.1174 3.2918,0.1897 1.0865,0.07 2.1722,0.15 3.2577,0.2335 1.1082,0.083 2.2166,0.1647 3.3249,0.2478 1.1016,0.078 2.2031,0.1579 3.3052,0.229 1.0935,0.069 2.187,0.1366 3.2808,0.2015 1.0839,0.063 2.1681,0.1214 3.2529,0.168 1.0884,0.043 2.1768,0.084 3.2655,0.1181 1.1186,0.036 2.2373,0.07 3.3564,0.083 1.0933,0.011 2.1867,0.012 3.28,-0.01 1.0894,-0.022 2.1788,-0.048 3.2679,-0.082 1.094,-0.035 2.1881,-0.071 3.2804,-0.1441 1.0579,-0.073 2.1147,-0.1611 3.1693,-0.2734 1.0622,-0.1112 2.1241,-0.2272 3.1833,-0.3648 1.0607,-0.1433 2.1205,-0.2998 3.1655,-0.5345 0.9794,-0.2261 1.9522,-0.4787 2.9131,-0.7745 0.961,-0.2913 1.9225,-0.5836 2.8645,-0.9326 0.9065,-0.3472 1.8015,-0.7251 2.6568,-1.1865 0.7587,-0.4129 1.5066,-0.8452 2.231,-1.3163 0.6908,-0.4498 1.3748,-0.9103 2.0307,-1.4104 0.5877,-0.4534 1.1661,-0.9184 1.7235,-1.4089 0.4419,-0.3903 0.8837,-0.7807 1.3112,-1.1869 0.3386,-0.329 0.6731,-0.6625 0.9847,-1.0175 0.2448,-0.28 0.4865,-0.5625 0.7268,-0.8462 0.213,-0.2507 0.4309,-0.4983 0.6191,-0.7686 l -3.6429,-3.245 z"
         id="path5760"
         style="display:inline;overflow:visible;visibility:visible;opacity:1;fill:#f44800;fill-opacity:1;fill-rule:nonzero;stroke:none;stroke-width:3.5;stroke-linecap:butt;stroke-linejoin:miter;stroke-miterlimit:4;stroke-dasharray:none;stroke-dashoffset:0;stroke-opacity:1;marker:none;marker-start:none;marker-mid:none;marker-end:none;enable-background:accumulate" />
      <path
         inkscape:connector-curvature="0"
         style="display:inline;overflow:visible;visibility:visible;opacity:1;fill:#f44800;fill-opacity:1;fill-rule:nonzero;stroke:none;stroke-width:3.5;stroke-linecap:butt;stroke-linejoin:miter;stroke-miterlimit:4;stroke-dasharray:none;stroke-dashoffset:0;stroke-opacity:1;marker:none;marker-start:none;marker-mid:none;marker-end:none;enable-background:accumulate"
         id="path5762"
         d="m 880.50384,1343.4882 c 0.1969,0.2274 0.3822,0.4643 0.5728,0.6969 0.2274,0.2814 0.4568,0.5611 0.69,0.8376 0.2651,0.3182 0.5507,0.6182 0.8414,0.9129 0.3902,0.3944 0.7947,0.7744 1.203,1.1499 0.5037,0.4716 1.0373,0.9085 1.5802,1.3336 0.6051,0.468 1.2434,0.8893 1.8845,1.3056 0.6782,0.437 1.3764,0.8407 2.0867,1.223 0.7708,0.4172 1.5845,0.7409 2.405,1.0445 0.9024,0.3164 1.8199,0.5879 2.7371,0.8579 0.9179,0.273 1.8479,0.4994 2.7839,0.7009 0.9885,0.2041 1.9894,0.3362 2.9901,0.4625 1.042,0.1267 2.0864,0.2298 3.1311,0.3309 1.0325,0.1062 2.0677,0.1794 3.1034,0.2448 1.0683,0.061 2.1379,0.09 3.2074,0.1201 1.0803,0.032 2.1609,0.054 3.2415,0.064 1.0757,0.015 2.1515,0.01 3.2272,-0.01 1.1039,-0.016 2.2073,-0.058 3.3105,-0.099 1.0842,-0.039 2.1683,-0.083 3.2518,-0.1368 1.0748,-0.049 2.149,-0.1113 3.2229,-0.1767 1.0893,-0.063 2.1785,-0.129 3.2671,-0.2046 1.0965,-0.073 2.193,-0.1473 3.2887,-0.2311 1.1069,-0.078 2.2132,-0.1644 3.3195,-0.251 1.0945,-0.09 2.1903,-0.1595 3.2863,-0.2269 1.1052,-0.069 2.2113,-0.1198 3.3173,-0.1718 1.0935,-0.047 2.1874,-0.083 3.2813,-0.1195 1.0371,-0.03 2.0742,-0.049 3.1117,-0.049 1.0265,0.01 2.0524,0.038 3.0777,0.086 1.0122,0.052 2.0223,0.1343 3.0312,0.2311 0.9683,0.096 1.934,0.2158 2.8982,0.3466 0.945,0.1318 1.8859,0.2895 2.8238,0.4643 0.9162,0.1776 1.8259,0.3864 2.734,0.6012 0.8516,0.2005 1.7006,0.4121 2.5472,0.633 0.8178,0.211 1.6258,0.456 2.4298,0.7142 0.8007,0.262 1.5853,0.5686 2.3706,0.8726 0.7464,0.2966 1.4877,0.6059 2.2258,0.9225 0.7027,0.3013 1.3963,0.6226 2.084,0.9563 0.6607,0.3247 1.31,0.6716 1.9616,1.014 0.6116,0.3235 1.2155,0.661 1.8147,1.0068 0.5552,0.3234 1.1081,0.6507 1.6571,0.9846 0.5093,0.3083 1.0159,0.6213 1.5172,0.9426 0.474,0.3011 0.9381,0.6171 1.3945,0.9441 0.4381,0.317 0.8588,0.6566 1.2798,0.9956 0.3893,0.315 0.7681,0.6423 1.1432,0.9739 0.3701,0.3285 0.7205,0.678 1.0611,1.0367 0.3198,0.3435 0.6223,0.7022 0.9245,1.0611 0.2931,0.347 0.5712,0.7058 0.8363,1.0744 0.2578,0.3636 0.489,0.7447 0.7195,1.1258 0.2032,0.3368 0.4058,0.674 0.6051,1.0132 0.2186,0.3612 0.405,0.7393 0.576,1.1249 0.1549,0.3677 0.291,0.7431 0.4215,1.1201 0.1129,0.33 0.2239,0.6607 0.3351,0.9914 0.0997,0.2964 0.1993,0.5928 0.299,0.8892 0.0897,0.2667 0.1793,0.5333 0.269,0.8 0.0806,0.2398 0.1612,0.4797 0.2419,0.7195 0.0725,0.2158 0.1451,0.4316 0.2176,0.6474 0.0653,0.1941 0.1306,0.3882 0.1958,0.5823 0.0587,0.1746 0.1175,0.3493 0.1762,0.5239 0.0474,0.1434 0.0969,0.286 0.1458,0.4289 l -4.1756,2.6448 c -0.0346,-0.1295 -0.0727,-0.2578 -0.1165,-0.3845 -0.0569,-0.1758 -0.1138,-0.3516 -0.1707,-0.5274 -0.0633,-0.1954 -0.1265,-0.3909 -0.1898,-0.5863 -0.0703,-0.2172 -0.1406,-0.4344 -0.2109,-0.6517 -0.0782,-0.2414 -0.1563,-0.4829 -0.2345,-0.7244 -0.0869,-0.2684 -0.1738,-0.5369 -0.2606,-0.8053 -0.0966,-0.2983 -0.1932,-0.5967 -0.2897,-0.8951 -0.1068,-0.33 -0.2137,-0.6599 -0.3203,-0.99 -0.1084,-0.3356 -0.2145,-0.672 -0.3392,-1.002 -0.1109,-0.3044 -0.2381,-0.6022 -0.3977,-0.8847 -0.1905,-0.3342 -0.3844,-0.6665 -0.5792,-0.9982 -0.1968,-0.3353 -0.3931,-0.6711 -0.6071,-0.9958 -0.2267,-0.3262 -0.4637,-0.6447 -0.7189,-0.9494 -0.27,-0.3279 -0.5405,-0.6556 -0.8275,-0.9689 -0.2939,-0.3147 -0.5995,-0.6184 -0.9211,-0.905 -0.3484,-0.312 -0.7018,-0.6185 -1.0638,-0.9147 -0.3834,-0.3139 -0.7692,-0.6252 -1.1725,-0.9135 -0.4285,-0.3044 -0.8645,-0.5983 -1.3059,-0.8836 -0.4861,-0.3126 -0.9743,-0.6219 -1.4672,-0.9236 -0.534,-0.3258 -1.0692,-0.6495 -1.6099,-0.9641 -0.5756,-0.3331 -1.1553,-0.6589 -1.7427,-0.9708 -0.6245,-0.3338 -1.25,-0.6661 -1.8886,-0.9723 -0.6625,-0.3157 -1.3289,-0.6229 -2.0038,-0.9114 -0.7136,-0.307 -1.4291,-0.61 -2.1538,-0.89 -0.744,-0.2878 -1.4922,-0.5655 -2.2551,-0.7999 -0.7733,-0.2386 -1.5515,-0.4602 -2.3351,-0.6631 -0.8292,-0.2154 -1.6596,-0.4267 -2.4936,-0.6229 -0.8739,-0.2035 -1.7499,-0.3994 -2.6339,-0.5543 -0.9082,-0.1583 -1.8184,-0.3053 -2.733,-0.4216 -0.9385,-0.12 -1.878,-0.2324 -2.8205,-0.3169 -0.9747,-0.086 -1.9506,-0.1591 -2.9287,-0.1928 -0.9975,-0.034 -1.9955,-0.055 -2.9937,-0.046 -1.0181,0.01 -2.0361,0.027 -3.0539,0.056 -1.081,0.03 -2.162,0.067 -3.2421,0.1203 -1.0978,0.054 -2.1951,0.1174 -3.2918,0.1897 -1.0865,0.07 -2.1722,0.15 -3.2577,0.2335 -1.1082,0.083 -2.2166,0.1647 -3.3249,0.2478 -1.1016,0.078 -2.2031,0.1579 -3.3052,0.229 -1.0935,0.069 -2.187,0.1366 -3.2808,0.2015 -1.0839,0.063 -2.1681,0.1214 -3.2529,0.168 -1.0884,0.043 -2.1768,0.084 -3.2655,0.1181 -1.1186,0.036 -2.2373,0.07 -3.3564,0.083 -1.0933,0.011 -2.1867,0.012 -3.28,-0.01 -1.0894,-0.022 -2.1788,-0.048 -3.2679,-0.082 -1.094,-0.035 -2.1881,-0.071 -3.2804,-0.1441 -1.0579,-0.073 -2.1147,-0.1611 -3.1693,-0.2734 -1.0622,-0.1112 -2.1241,-0.2272 -3.1833,-0.3648 -1.0607,-0.1433 -2.1205,-0.2998 -3.1655,-0.5345 -0.9794,-0.2261 -1.9522,-0.4787 -2.9131,-0.7745 -0.961,-0.2913 -1.9225,-0.5836 -2.8645,-0.9326 -0.9065,-0.3472 -1.8015,-0.7251 -2.6568,-1.1865 -0.7587,-0.4129 -1.5066,-0.8452 -2.231,-1.3163 -0.6908,-0.4498 -1.3748,-0.9103 -2.0307,-1.4104 -0.5877,-0.4534 -1.1661,-0.9184 -1.7235,-1.4089 -0.4419,-0.3903 -0.8837,-0.7807 -1.3112,-1.1869 -0.3386,-0.329 -0.6731,-0.6625 -0.9847,-1.0175 -0.2448,-0.28 -0.4865,-0.5625 -0.7268,-0.8462 -0.213,-0.2507 -0.4309,-0.4983 -0.6191,-0.7686 l 3.6429,-3.245 z" />
    </g>
    <path
       inkscape:connector-curvature="0"
       id="path5708"
       d="m -444.29701,1464.5958 170.73361,0"
       style="fill:#2e3436;fill-opacity:0.75;fill-rule:evenodd;stroke:#2e3436;stroke-width:1.15228379;stroke-linecap:butt;stroke-linejoin:miter;stroke-miterlimit:4;stroke-dasharray:none;stroke-dashoffset:0;stroke-opacity:1;marker-end:url(#Arrow1Lend)" />
    <path
       inkscape:connector-curvature="0"
       id="path5710"
       d="m -424.5507,1483.441 0,-169.8812"
       style="fill:#2e3436;fill-opacity:0.75;fill-rule:evenodd;stroke:#2e3436;stroke-width:1.15228391;stroke-linecap:butt;stroke-linejoin:miter;stroke-miterlimit:4;stroke-dasharray:none;stroke-dashoffset:0;stroke-opacity:1;marker-end:url(#Arrow1Lend)" />
    <text
       transform="scale(0.9999839,1.0000161)"
       xml:space="preserve"
       style="font-style:italic;font-variant:normal;font-weight:bold;font-stretch:normal;font-size:26.48475266px;line-height:125%;font-family:'Comic Sans MS';text-indent:0;text-align:start;text-decoration:none;text-decoration-line:none;letter-spacing:normal;word-spacing:normal;text-transform:none;direction:ltr;block-progression:tb;writing-mode:lr-tb;text-anchor:start;display:inline;overflow:visible;visibility:visible;opacity:1;fill:#000000;fill-opacity:1;fill-rule:nonzero;stroke:none;stroke-width:1px;stroke-linecap:butt;stroke-linejoin:miter;stroke-miterlimit:4;stroke-dasharray:none;stroke-dashoffset:0;stroke-opacity:1;marker:none;marker-start:none;marker-mid:none;marker-end:none"
       x="-284.71396"
       y="1484.3947"
       id="text5712"
       sodipodi:linespacing="125%"><tspan
         y="1484.3947"
         x="-284.71396"
         id="tspan5714"
         sodipodi:role="line">x</tspan></text>
    <text
       transform="scale(0.9999839,1.0000161)"
       xml:space="preserve"
       style="font-style:italic;font-variant:normal;font-weight:bold;font-stretch:normal;font-size:26.48475266px;line-height:125%;font-family:'Comic Sans MS';-inkscape-font-specification:'Comic Sans MS';text-indent:0;text-align:start;text-decoration:none;text-decoration-line:none;letter-spacing:normal;word-spacing:normal;text-transform:none;direction:ltr;block-progression:tb;writing-mode:lr-tb;text-anchor:start;display:inline;overflow:visible;visibility:visible;opacity:1;fill:#000000;fill-opacity:1;fill-rule:nonzero;stroke:none;stroke-width:1px;stroke-linecap:butt;stroke-linejoin:miter;stroke-miterlimit:4;stroke-dasharray:none;stroke-dashoffset:0;stroke-opacity:1;marker:none;marker-start:none;marker-mid:none;marker-end:none"
       x="-446.43213"
       y="1329.7822"
       id="text5716"
       sodipodi:linespacing="125%"><tspan
         y="1329.7822"
         x="-446.43213"
         id="tspan5718"
         sodipodi:role="line">y</tspan></text>
  </g>
</svg>
